<?xml version="1.0" encoding="iso-8859-1"?>
<!-- Generator: Adobe Illustrator 19.2.0, SVG Export Plug-In . SVG Version: 6.00 Build 0)  -->
<svg xmlns="http://www.w3.org/2000/svg" xmlns:xlink="http://www.w3.org/1999/xlink" version="1.1" id="Layer_1" x="0px" y="0px" viewBox="0 0 40 40" style="enable-background:new 0 0 40 40;" xml:space="preserve">
<g>
	<path style="fill:#98CCFD;" d="M24.5,26.5c-0.552,0-1-0.449-1-1v-23c0-0.551,0.448-1,1-1h13c0.552,0,1,0.449,1,1v23   c0,0.551-0.448,1-1,1H24.5z"/>
	<path style="fill:#4788C7;" d="M37.5,2C37.776,2,38,2.224,38,2.5v23c0,0.276-0.224,0.5-0.5,0.5h-13c-0.276,0-0.5-0.224-0.5-0.5v-23   C24,2.224,24.224,2,24.5,2H37.5 M37.5,1h-13C23.672,1,23,1.672,23,2.5v23c0,0.828,0.672,1.5,1.5,1.5h13c0.828,0,1.5-0.672,1.5-1.5   v-23C39,1.672,38.328,1,37.5,1L37.5,1z"/>
</g>
<g>
	<rect x="23.5" y="4.5" style="fill:#DFF0FE;" width="15" height="19"/>
	<g>
		<path style="fill:#4788C7;" d="M38,5v18H24V5H38 M39,4H23v20h16V4L39,4z"/>
	</g>
</g>
<g>
	<path style="fill:#98CCFD;" d="M13.5,32.5c-0.552,0-1-0.449-1-1v-23c0-0.551,0.448-1,1-1h13c0.552,0,1,0.449,1,1v23   c0,0.551-0.448,1-1,1H13.5z"/>
	<g>
		<path style="fill:#4788C7;" d="M26.5,8C26.776,8,27,8.224,27,8.5v23c0,0.276-0.224,0.5-0.5,0.5h-13c-0.276,0-0.5-0.224-0.5-0.5    v-23C13,8.224,13.224,8,13.5,8H26.5 M26.5,7h-13C12.672,7,12,7.672,12,8.5v23c0,0.828,0.672,1.5,1.5,1.5h13    c0.828,0,1.5-0.672,1.5-1.5v-23C28,7.672,27.328,7,26.5,7L26.5,7z"/>
	</g>
</g>
<g>
	<rect x="12.5" y="10.5" style="fill:#DFF0FE;" width="15" height="19"/>
	<g>
		<path style="fill:#4788C7;" d="M27,11v18H13V11H27 M28,10H12v20h16V10L28,10z"/>
	</g>
</g>
<g>
	<path style="fill:#B6DCFE;" d="M2.5,38.5c-0.552,0-1-0.449-1-1v-23c0-0.551,0.448-1,1-1h13c0.552,0,1,0.449,1,1v23   c0,0.551-0.448,1-1,1H2.5z"/>
	<g>
		<path style="fill:#4788C7;" d="M15.5,14c0.276,0,0.5,0.224,0.5,0.5v23c0,0.276-0.224,0.5-0.5,0.5h-13C2.224,38,2,37.776,2,37.5    v-23C2,14.224,2.224,14,2.5,14H15.5 M15.5,13h-13C1.672,13,1,13.672,1,14.5v23C1,38.328,1.672,39,2.5,39h13    c0.828,0,1.5-0.672,1.5-1.5v-23C17,13.672,16.328,13,15.5,13L15.5,13z"/>
	</g>
</g>
<g>
	<rect x="1.5" y="16.5" style="fill:#DFF0FE;" width="15" height="19"/>
	<g>
		<path style="fill:#4788C7;" d="M16,17v18H2V17H16 M17,16H1v20h16V16L17,16z"/>
	</g>
</g>
</svg>
